<svg width="265" height="295" xmlns="http://www.w3.org/2000/svg">
 <g>
  <title>Layer 1</title>
  <text fill="#000000" stroke-width="0" x="357.43038" y="260.08349" id="svg_3" font-size="24" font-family="'Sora'" text-anchor="start" xml:space="preserve" font-weight="bold" stroke="#000" transform="matrix(10.2715 0 0 9.59276 -4539.73 -2237.21)" class="fr-fix-5eeadda5">R</text>
  <text fill="#003f7f" stroke-width="0" x="238.61194" y="230.87305" id="svg_4" font-size="24" font-family="'Asap'" text-anchor="start" xml:space="preserve" font-weight="bold" class="fr-fix-5eeadda5" stroke="#000" transform="matrix(8.02585 0 0 7.35795 -1849.33 -1481.32)">R</text>
  <path fill="#368fe2" stroke="#000" stroke-width="0" d="m219.10237,35.61081c-23.5844,-18.52155 -49.02148,-33.35848 -69.88773,-35.3812c-1.13595,-0.1312 -2.31246,-0.20774 -3.55659,-0.22961l-137.32777,0c-2.19075,0 -4.35446,0.68882 -5.8961,1.96805c-1.52812,1.24643 -2.43417,2.99581 -2.43417,4.77799l0,281.54074c0,1.77125 0.85196,3.46596 2.43417,4.75613c1.58221,1.2683 3.66478,1.95712 5.8961,1.95712l248.33945,0c2.19075,0 4.28684,-0.67788 5.86905,-1.95712c1.58221,-1.27923 2.46122,-2.97394 2.46122,-4.75613l0,-187.34759c-0.48683,-21.74697 -21.55593,-45.462 -45.89763,-65.32838zm29.21004,245.90807l-231.67891,0l0,-268.07051l129.03807,0l0,0.02187c5.62564,-0.27334 10.48045,4.22038 14.19933,14.49798c3.38079,9.78559 4.23275,22.54513 4.21923,31.39043c0.02705,6.48364 -0.36513,10.83522 -0.36513,10.83522l-0.66264,7.12872l8.8712,0.07654c0.04057,0 20.50112,0.19681 40.5695,3.88144c19.28404,3.36756 34.36237,10.0808 35.76878,17.67966c0.05409,0.67788 0.06762,1.35577 0.05409,1.98992l0,180.56875l-0.01352,0l0,-0.00002z" id="svg_6"/>
 </g>

</svg>